<svg xmlns="http://www.w3.org/2000/svg" version="1.1" xmlns:xlink="http://www.w3.org/1999/xlink" xmlns:svgjs="http://svgjs.com/svgjs" width="512" height="512" x="0" y="0" viewBox="0 0 64 64" style="enable-background:new 0 0 512 512" xml:space="preserve"><g><path xmlns="http://www.w3.org/2000/svg" d="M57,13H44V12A8.9838,8.9838,0,0,0,30.5,4.2177,8.9838,8.9838,0,0,0,17,12v1H9.0342A3.0378,3.0378,0,0,0,6,16.0342V57.9658A3.0378,3.0378,0,0,0,9.0342,61H57a1,1,0,0,0,1-1V14A1,1,0,0,0,57,13ZM35,5a7.0081,7.0081,0,0,1,7,7v1H35V12a8.9684,8.9684,0,0,0-2.731-6.4446A6.96,6.96,0,0,1,35,5ZM30.5,6.646A6.9853,6.9853,0,0,1,33,12v1H28V12A6.9853,6.9853,0,0,1,30.5,6.646ZM19,12a6.9987,6.9987,0,0,1,9.731-6.4446A8.9684,8.9684,0,0,0,26,12v1H19ZM44,59H9.0342A1.0353,1.0353,0,0,1,8,57.9658V16.0342A1.0353,1.0353,0,0,1,9.0342,15H17v5a1,1,0,0,0,2,0V15H33v5a1,1,0,0,0,2,0V15h9Zm2-44h4V53.5859l-4,4Zm1.4141,44L51,55.4141,54.5859,59ZM56,57.5859l-4-4V15h4Z" fill="#000000" data-original="#000000"></path><path xmlns="http://www.w3.org/2000/svg" d="M34,39.7573V32a2.9894,2.9894,0,0,0-4.1157-2.78,2.9833,2.9833,0,0,0-5.4135-.8189A2.963,2.963,0,0,0,23,28a3.0033,3.0033,0,0,0-3,3v.1843A2.9635,2.9635,0,0,0,19,31a3.0033,3.0033,0,0,0-3,3v9.6741a3.2329,3.2329,0,0,0-4.0479.29,2.9432,2.9432,0,0,0-.1289,4.2075l4.2842,4.5161a.9983.9983,0,0,0,.709.312h.0166a1.0008,1.0008,0,0,0,.7022-.2881l1.2376-1.2207A8.9814,8.9814,0,0,0,32.62,49.7725l6.501-6.6509a3,3,0,0,0,0-4.2427,3.0706,3.0706,0,0,0-4.2422,0ZM16.8564,50.5718l-3.582-3.7769a.958.958,0,0,1-.2734-.69.9689.9689,0,0,1,.3193-.6821,1.2372,1.2372,0,0,1,.8477-.3252c.0293,0,.0595.0009.0888.0029a1.2084,1.2084,0,0,1,.86.4277l.94,1.1533a1.0022,1.0022,0,0,0,.7344.3672,1.0312,1.0312,0,0,0,.7617-.3056l1.3135-1.3653v0a1.3172,1.3172,0,0,1,1.8076-.0336.9832.9832,0,0,1,.0147,1.4477ZM37.707,40.2935A.9888.9888,0,0,1,38,41a1,1,0,0,1-.3008.7153l-6.5859,6.7383a.9811.9811,0,0,0-.1387.1782,6.98,6.98,0,0,1-10.776,1.4527l1.8952-1.8692a2.9826,2.9826,0,0,0-.0381-4.3188A3.3355,3.3355,0,0,0,18,43.53V34a1,1,0,0,1,2,0v7a1,1,0,0,0,2,0V31a1,1,0,0,1,2,0V41a1,1,0,0,0,2,0V30a1,1,0,0,1,2,0V41a1,1,0,0,0,2,0V32a1,1,0,0,1,2,0V42.1714a1,1,0,0,0,1.707.707l2.586-2.5854A1,1,0,0,1,37.707,40.2935Z" fill="#000000" data-original="#000000"></path></g></svg>